<!-- xmlns:xlink="http://www.w3.org/1999/xlink" -->

<svg xmlns="http://www.w3.org/2000/svg" style="display: none;">
  <def>
    <symbol id="magnifying-glass" viewBox="0 0 512 512">
      <path d="M504.1 471l-134-134C399.1 301.5 415.1 256.8 415.1 208c0-114.9-93.13-208-208-208S-.0002 93.13-.0002 208S93.12 416 207.1 416c48.79 0 93.55-16.91 129-45.04l134 134C475.7 509.7 481.9 512 488 512s12.28-2.344 16.97-7.031C514.3 495.6 514.3 480.4 504.1 471zM48 208c0-88.22 71.78-160 160-160s160 71.78 160 160s-71.78 160-160 160S48 296.2 48 208z"/>
    </symbol>
    <symbol id="inbox" viewBox="0 0 512 512">
      <path d="M508.3 304.9l-61.25-248.7C443.5 41.1 430.7 31.1 416 31.1H96c-14.69 0-27.47 10-31.03 24.25L3.715 304.9C1.248 314.9 0 325.2 0 335.5V416c0 35.35 28.65 64 64 64h384c35.35 0 64-28.65 64-64v-80.47C512 325.2 510.8 314.9 508.3 304.9zM108.6 80h294.9L454.7 288H368c-9.094 0-17.41 5.125-21.47 13.28L321.2 352H190.8L165.5 301.3C161.4 293.1 153.1 288 144 288H57.32L108.6 80zM464 416c0 8.822-7.178 16-16 16H64c-8.822 0-16-7.178-16-16v-80h81.16l25.38 50.72C158.6 394.9 166.9 400 176 400h160c9.094 0 17.41-5.125 21.47-13.28L382.8 336H464V416z"/>
    </symbol>
    <symbol id="ellipsis-vertical" viewBox="0 0 512 512">
      <path d="M64 112c26.5 0 48-21.5 48-48S90.5 16 64 16S16 37.5 16 64S37.5 112 64 112zM64 400c-26.5 0-48 21.5-48 48s21.5 48 48 48s48-21.5 48-48S90.5 400 64 400zM64 208C37.5 208 16 229.5 16 256S37.5 304 64 304s48-21.5 48-48S90.5 208 64 208z"/>
    </symbol>
    <symbol id="bars" viewBox="0 0 448 512">
      <path d="M424 392H23.1C10.8 392 0 402.8 0 415.1C0 429.2 10.8 440 23.1 440H424c13.2 0 24-10.8 24-23.1C448 402.8 437.2 392 424 392zM424 72H23.1C10.8 72 0 82.8 0 95.1S10.8 120 23.1 120H424c13.2 0 24-10.8 24-23.1S437.2 72 424 72zM424 232H23.1C10.8 232 0 242.8 0 256c0 13.2 10.8 24 23.1 24H424C437.2 280 448 269.2 448 256S437.2 232 424 232z"/>
    </symbol>
    <symbol id="arrow-right-from-bracket" viewBox="0 0 512 512">
      <path d="M192 456C192 469.3 181.3 480 168 480H96c-53.02 0-96-42.98-96-96V128c0-53.02 42.98-96 96-96h72C181.3 32 192 42.74 192 56C192 69.25 181.3 80 168 80H96C69.6 80 48 101.6 48 128v256c0 26.4 21.6 48 48 48h72C181.3 432 192 442.7 192 456zM505.5 239.6l-127.1-136c-9.094-9.688-24.28-10.12-33.91-1.031c-9.656 9.062-10.12 24.25-1.031 33.91L432.4 232H183.1C170.7 232 160 242.8 160 256s10.75 24 23.1 24h248.4l-89.92 95.56c-9.094 9.656-8.625 24.84 1.031 33.91C348.2 413.8 354.1 416 359.1 416c6.375 0 12.75-2.531 17.47-7.562l127.1-136C514.2 263.2 514.2 248.8 505.5 239.6z"/>
    </symbol>
    <symbol id="arrow-right-to-bracket" viewBox="0 0 512 512">
      <path d="M512 128v256c0 53.02-42.98 96-96 96h-72C330.7 480 320 469.3 320 456c0-13.26 10.75-24 24-24H416c26.4 0 48-21.6 48-48V128c0-26.4-21.6-48-48-48h-72C330.7 80 320 69.25 320 56C320 42.74 330.7 32 344 32H416C469 32 512 74.98 512 128zM345.5 239.6l-128-136C208.4 93.88 193.2 93.44 183.6 102.5C173.9 111.6 173.4 126.8 182.5 136.4L272.4 232H24C10.75 232 0 242.8 0 256s10.75 24 24 24h248.4l-89.92 95.56c-9.094 9.656-8.625 24.84 1.031 33.91C188.2 413.8 194.1 416 200 416c6.375 0 12.75-2.531 17.47-7.562l128-136C354.2 263.2 354.2 248.8 345.5 239.6z"/>
    </symbol>
    <symbol id="trash-can" viewBox="0 0 448 512">
      <path d="M432 80h-82.38l-34-56.75C306.1 8.827 291.4 0 274.6 0H173.4C156.6 0 141 8.827 132.4 23.25L98.38 80H16C7.125 80 0 87.13 0 96v16C0 120.9 7.125 128 16 128H32v320c0 35.35 28.65 64 64 64h256c35.35 0 64-28.65 64-64V128h16C440.9 128 448 120.9 448 112V96C448 87.13 440.9 80 432 80zM171.9 50.88C172.9 49.13 174.9 48 177 48h94c2.125 0 4.125 1.125 5.125 2.875L293.6 80H154.4L171.9 50.88zM352 464H96c-8.837 0-16-7.163-16-16V128h288v320C368 456.8 360.8 464 352 464zM224 416c8.844 0 16-7.156 16-16V192c0-8.844-7.156-16-16-16S208 183.2 208 192v208C208 408.8 215.2 416 224 416zM144 416C152.8 416 160 408.8 160 400V192c0-8.844-7.156-16-16-16S128 183.2 128 192v208C128 408.8 135.2 416 144 416zM304 416c8.844 0 16-7.156 16-16V192c0-8.844-7.156-16-16-16S288 183.2 288 192v208C288 408.8 295.2 416 304 416z"/>
    </symbol>
    <symbol id="square-check" viewBox="0 0 448 512">
      <path d="M384 32H64C28.65 32 0 60.65 0 96v320c0 35.35 28.65 64 64 64h320c35.35 0 64-28.65 64-64V96C448 60.65 419.3 32 384 32zM400 416c0 8.836-7.164 16-16 16H64c-8.836 0-16-7.164-16-16V96c0-8.838 7.164-16 16-16h320c8.836 0 16 7.162 16 16V416zM303 175L192 286.1L144.1 239c-9.375-9.375-24.56-9.375-33.94 0s-9.375 24.56 0 33.94l64 64C179.7 341.7 185.8 344 192 344s12.28-2.344 16.97-7.031l128-128c9.375-9.375 9.375-24.56 0-33.94S312.4 165.7 303 175z"/>
    </symbol>
    <symbol id="home" viewBox="0 0 576 512">
      <path d="M576 247.1c0-6.802-2.877-13.56-8.471-18.31l-263.1-224c-4.484-3.781-10.01-5.669-15.53-5.669S276.1 1.891 272.5 5.672L8.471 229.7C2.877 234.4 0 241.2 0 247.1C0 264.1 13.83 271.1 24.02 271.1c5.479 0 10.99-1.867 15.51-5.687l24.47-20.76v226.5C64 494.1 81.94 512 104 512h95.1c22.06 0 39.1-17.94 39.1-40l.0056-120h95.1l-.0032 120C335.1 494.1 353.9 512 375.1 512h95.1c22.06 0 39.1-17.94 39.1-40V245.5L536.5 266.3c4.516 3.813 10.03 5.688 15.52 5.688C562.1 271.1 576 263.1 576 247.1zM463.1 463.1H383.1v-120c0-22.06-17.94-40-39.1-40H232c-22.06 0-39.1 17.94-39.1 40v120H112V207.1c0-.9629-.4375-1.783-.5488-2.717L288 55.45l175.1 149.4V463.1z"/>
    </symbol>
    <symbol id="shield-keyhole" viewBox="0 0 512 512">
      <path d="M466.5 83.69l-192-80.01C269.6 1.656 261.3 0 256.1 0C250.8 0 242.5 1.656 237.6 3.688l-192 80.01C27.69 91.08 16 108.6 16 127.1C16 385.2 205.2 512 255.1 512C307.1 512 496 383.8 496 127.1C496 108.6 484.3 91.08 466.5 83.69zM256.1 48.03C256.1 48.02 256.2 48.03 256.1 48.03L256.1 48.03zM255.1 464C163.5 425.5 64.06 303.9 64.06 128.1c0-.05 0 .05 0 0l190.8-79.64c.332-.1016 .7422-.3021 1.275-.3997L448 127.1C448 330.5 322.4 436.3 255.1 464zM200 208c0 22.3 13.13 41.4 32 50.41V328C232 341.3 242.8 352 256 352s24-10.75 24-24V258.4c18.87-9.008 32-28.11 32-50.41c0-30.93-25.07-56-56-56S200 177.1 200 208z"/>
    </symbol>
    <symbol id="screwdriver-wrench" viewBox="0 0 512 512">
      <path d="M223.1 96.1l.0046 48.74L253.7 174.6c-6.878-34.87 3.493-70.37 28.49-95.37c20.25-20.25 47.12-31.13 74.99-31.13l1.125-.0001L300.1 105.2l15.13 90.61l90.62 15.11l57.24-57.25c.2526 28.25-10.62 55.49-31.24 75.99c-9.249 9.375-20.12 16.5-31.75 21.63c1.75 1.625 3.874 2.899 5.625 4.648l30.63 30.72c10.5-6.375 20.5-14 29.5-23c37.99-37.1 53.61-94.24 40.61-146.5c-3.001-12.25-12.38-21.87-24.38-25.24c-12.25-3.373-25.25 .1273-33.1 9.002l-58.74 58.62l-32.37-5.371l-5.378-32.5l58.62-58.5c8.874-8.1 12.25-21.1 8.871-33.1c-3.251-12.12-13-21.5-25.25-24.49c-53.12-13.24-107.9 2.01-146.5 40.51c-10.25 10.25-18.5 21.75-25.37 33.1l1.125 .7498L223.1 96.1zM106 453.9c-12.75 12.75-35.25 12.75-48.12 .0045c-6.375-6.374-10-14.1-10-23.1c-.0009-9.124 3.498-17.62 9.997-23.1L192.3 271.6L158.4 237.7l-134.4 134.2c-15.5 15.5-23.1 36.12-23.99 57.1s8.503 42.49 24 57.99c15.5 15.5 36.12 23.99 57.1 23.99c21.87-.002 42.5-8.503 57.99-24l100.9-100.9c-9.626-15.87-15.13-33.87-15.63-52.12L106 453.9zM501.1 395.6l-117.1-117c-23.13-23.12-57.65-27.65-85.39-13.9L191.1 158L191.1 95.99l-127.1-95.99L0 63.1l96 127.1l62.04 .0077l106.7 106.6c-13.62 27.75-9.218 62.27 13.91 85.39l117 117.1c14.5 14.62 38.21 14.62 52.71-.0016l52.75-52.75C515.6 433.7 515.6 410.1 501.1 395.6z"/>
    </symbol>
    <symbol id="square-exclamation" viewBox="0 0 448 512">
      <path d="M224 337.1c-17.36 0-31.44 14.08-31.44 31.44C192.6 385.9 206.6 400 224 400s31.44-14.08 31.44-31.44C255.4 351.2 241.4 337.1 224 337.1zM224 304c13.25 0 24-10.75 24-24v-128C248 138.8 237.3 128 224 128S200 138.8 200 152v128C200 293.3 210.8 304 224 304zM384 32H64C28.65 32 0 60.65 0 96v320c0 35.35 28.65 64 64 64h320c35.35 0 64-28.65 64-64V96C448 60.65 419.3 32 384 32zM400 416c0 8.822-7.178 16-16 16H64c-8.822 0-16-7.178-16-16V96c0-8.822 7.178-16 16-16h320c8.822 0 16 7.178 16 16V416z"/>
    </symbol>
    <symbol id="chevron-up" viewBox="0 0 448 512">
      <path d="M15.41 302.7l191.1-183.1C212 114.2 218 111.1 224 111.1s11.97 2.219 16.59 6.688l191.1 183.1c9.594 9.152 9.906 24.34 .7187 33.9c-9.125 9.625-24.38 9.938-33.91 .7187L224 169.2l-175.4 168c-9.5 9.219-24.78 8.906-33.91-.7187C5.502 327 5.814 311.8 15.41 302.7z"/>
    </symbol>
    <symbol id="chevron-down" viewBox="0 0 448 512">
      <path d="M432.6 209.3l-191.1 183.1C235.1 397.8 229.1 400 224 400s-11.97-2.219-16.59-6.688L15.41 209.3C5.814 200.2 5.502 184.1 14.69 175.4c9.125-9.625 24.38-9.938 33.91-.7187L224 342.8l175.4-168c9.5-9.219 24.78-8.906 33.91 .7187C442.5 184.1 442.2 200.2 432.6 209.3z"/>
    </symbol>
    <symbol id="chevron-left" viewBox="0 0 320 512">
      <path d="M206.7 464.6l-183.1-191.1C18.22 267.1 16 261.1 16 256s2.219-11.97 6.688-16.59l183.1-191.1c9.152-9.594 24.34-9.906 33.9-.7187c9.625 9.125 9.938 24.37 .7187 33.91L73.24 256l168 175.4c9.219 9.5 8.906 24.78-.7187 33.91C231 474.5 215.8 474.2 206.7 464.6z"/>
    </symbol>
    <symbol id="chevron-right" viewBox="0 0 320 512">
      <path d="M113.3 47.41l183.1 191.1c4.469 4.625 6.688 10.62 6.688 16.59s-2.219 11.97-6.688 16.59l-183.1 191.1c-9.152 9.594-24.34 9.906-33.9 .7187c-9.625-9.125-9.938-24.38-.7187-33.91l168-175.4L78.71 80.6c-9.219-9.5-8.906-24.78 .7187-33.91C88.99 37.5 104.2 37.82 113.3 47.41z"/>
    </symbol>
    <symbol id="caret-up" viewBox="0 0 320 512">
      <path d="M9.39 265.4l127.1-128C143.6 131.1 151.8 128 160 128s16.38 3.125 22.63 9.375l127.1 128c9.156 9.156 11.9 22.91 6.943 34.88S300.9 320 287.1 320H32.01c-12.94 0-24.62-7.781-29.58-19.75S.2333 274.5 9.39 265.4z"/>
    </symbol>
    <symbol id="caret-down" viewBox="0 0 320 512">
      <path d="M310.6 246.6l-127.1 128C176.4 380.9 168.2 384 160 384s-16.38-3.125-22.63-9.375l-127.1-128C.2244 237.5-2.516 223.7 2.438 211.8S19.07 192 32 192h255.1c12.94 0 24.62 7.781 29.58 19.75S319.8 237.5 310.6 246.6z"/>
    </symbol>
    <symbol id="caret-left" viewBox="0 0 256 512">
      <path d="M137.4 406.6l-128-127.1C3.125 272.4 0 264.2 0 255.1s3.125-16.38 9.375-22.63l128-127.1c9.156-9.156 22.91-11.9 34.88-6.943S192 115.1 192 128v255.1c0 12.94-7.781 24.62-19.75 29.58S146.5 415.8 137.4 406.6z"/>
    </symbol>
    <symbol id="caret-right" viewBox="0 0 256 512">
      <path d="M118.6 105.4l128 127.1C252.9 239.6 256 247.8 256 255.1s-3.125 16.38-9.375 22.63l-128 127.1c-9.156 9.156-22.91 11.9-34.88 6.943S64 396.9 64 383.1V128c0-12.94 7.781-24.62 19.75-29.58S109.5 96.23 118.6 105.4z"/>
    </symbol>
    <symbol id="arrow-left-to-line" viewBox="0 0 448 512">
      <path d="M48.03 424V88c0-13.25-10.76-24-24.02-24S0 74.75 0 88v336C0 437.3 10.76 448 24.02 448S48.03 437.3 48.03 424zM272.3 366.5L180.3 280h243.6C437.2 280 448 269.3 448 256s-10.76-23.1-24.02-23.1H180.3l91.98-86.53c5.035-4.719 7.568-11.09 7.568-17.47c0-5.906-2.158-11.81-6.536-16.44c-9.069-9.656-24.27-10.12-33.93-1.031l-136.1 128c-9.694 9.062-9.694 25.87 0 34.94l136.1 128c9.663 9.094 24.86 8.625 33.93-1.031C282.5 390.8 282 375.6 272.3 366.5z"/>
    </symbol>
    <symbol id="arrow-right-to-line" viewBox="0 0 448 512">
      <path d="M399.1 88v336c0 13.25 10.76 24 24.02 24C437.2 448 448 437.3 448 424V88C448 74.75 437.2 64 423.1 64C410.7 64 399.1 74.75 399.1 88zM175.7 145.5l91.98 86.53h-243.6C10.76 232 0 242.8 0 256s10.76 24 24.02 24h243.6l-91.98 86.53C170.6 371.3 168.1 377.6 168.1 384c0 5.906 2.158 11.81 6.536 16.44c9.069 9.656 24.27 10.12 33.93 1.031l136.1-128c9.694-9.062 9.694-25.87 0-34.94l-136.1-128C198.9 101.4 183.7 101.9 174.6 111.6C165.5 121.2 165.1 136.4 175.7 145.5z"/>
    </symbol>
    <symbol id="memo" viewBox="0 0 384 512">
      <path d="M264 224h-144C106.8 224 96 234.8 96 248S106.8 272 120 272h144C277.3 272 288 261.3 288 248S277.3 224 264 224zM168 320h-48C106.8 320 96 330.8 96 344s10.75 24 24 24h48c13.25 0 24-10.75 24-24S181.3 320 168 320zM264 128h-144C106.8 128 96 138.8 96 152S106.8 176 120 176h144C277.3 176 288 165.3 288 152S277.3 128 264 128zM320 0H64C28.65 0 0 28.65 0 64v384c0 35.35 28.65 64 64 64h256c35.35 0 64-28.65 64-64V64C384 28.65 355.3 0 320 0zM336 448c0 8.822-7.178 16-16 16H64c-8.822 0-16-7.178-16-16V64c0-8.822 7.178-16 16-16h256c8.822 0 16 7.178 16 16V448z"/>
    </symbol>
    <symbol id="xmark" viewBox="0 0 320 512">
      <path d="M312.1 375c9.369 9.369 9.369 24.57 0 33.94s-24.57 9.369-33.94 0L160 289.9l-119 119c-9.369 9.369-24.57 9.369-33.94 0s-9.369-24.57 0-33.94L126.1 256L7.027 136.1c-9.369-9.369-9.369-24.57 0-33.94s24.57-9.369 33.94 0L160 222.1l119-119c9.369-9.369 24.57-9.369 33.94 0s9.369 24.57 0 33.94L193.9 256L312.1 375z"/>
    </symbol>
    </def>
</svg>